<svg id="adfc4de4-086e-4dfe-b6b0-be16b4b1d15f" data-name="Layer 1" xmlns="http://www.w3.org/2000/svg" viewBox="0 0 1000 1000"><defs><style>.b1ab6a71-846a-49e9-a000-3ba3e38bc92b{fill:#fff;stroke:#000;stroke-miterlimit:10;}</style></defs><path class="b1ab6a71-846a-49e9-a000-3ba3e38bc92b" d="M248.5,525.74l96.71-288.92H490.28v12H478.71q-15.76,0-25.23,6.78-6.57,4.53-10.51,15.19-2.89,7.75-2.89,40.4V600.07q0,33.61,2.89,42t11.83,14.71q8.93,6.3,23.91,6.3h11.57v12H304.21v-12h11.56q15.78,0,25.23-6.79,6.57-4.51,10.52-15.51,2.88-7.75,2.89-40.72V275.28L217.75,675.05h-6.31L72.68,278.19V586.82q0,32.32,1.31,39.75,3.42,16.17,14.85,26.34t35.88,10.18v12H2.77v-12H6.45a46.44,46.44,0,0,0,22.08-4.69A36.72,36.72,0,0,0,44,645q5.25-8.4,8.14-23.59.52-3.55.53-33V311.15q0-33.28-2.89-41.53T38,255.08q-8.94-6.3-23.91-6.3H2.77v-12h145.6Z"/><path class="b1ab6a71-846a-49e9-a000-3ba3e38bc92b" d="M993.25,235.67v11.94q-24.48,3.87-43.66,25.5Q935.7,289.25,908.24,349L753.78,683.32H742.86L589.06,335.4q-27.78-62.94-37.21-73.91t-35.56-13.88V235.67h215v11.94H724q-29.12,0-39.69,7.1-7.61,4.84-7.61,14.2a44.06,44.06,0,0,0,2.65,13.72q2.64,7.92,17.86,42.44l95.59,217.86,88.64-194q15.88-35.18,19.52-47.13t3.64-20.33a28.71,28.71,0,0,0-5.3-17.1Q894,257,883.77,253.1q-14.24-5.49-37.71-5.49V235.67Z"/></svg>